# xmcd CD database file
#
# Track frame offsets:
#	150
#	18525
#	36544
#	51162
#	68164
#	83133
#	98705
#	116879
#	136905
#	149196
#	167334
#	182398
#	200517
#	217929
#	229455
#	247711
#	265816
#	282761
#
# Disc length: 3948 seconds
#
# Revision: 0
# Processed by: cddbd v1.5.1PL0 Copyright (c) Steve Scherf et al.
# Submitted via: CDex 1.51
#
DISCID=050f6a12
DTITLE=CP16_160 - CP16_160
DYEAR=1900
DGENRE=LineDance
TTITLE0=Magic [ When You Say You Love Me ] Clay Aiken
TTITLE1=Clickety Clack [ Soutbound Train ] Travis Tritt
TTITLE2=Dreamworld [ Dreamworld ] Olsen Berothers
TTITLE3=Trust Me [ Vincero ] Fredrik Kemper
TTITLE4=Closer [ Closer ] Susan Ashton
TTITLE5=All Day Long [ Mr. Mom ] Lonestar
TTITLE6=Caught In The Act [ Who's Been Sleeping In My Bed ] Glen Frey
TTITLE7=Cheyanne Rock [ Past The Point Of Rescue ] Hal Ketchum
TTITLE8=Speak to The Sky [ Speak to The Sky ] Brandon Walmsley
TTITLE9=From Zero To Hero [ From Zero To Hero ] Sarah Conner
TTITLE10=1000 Years [ A Love Worth Waitin For ] Shakin Stevens
TTITLE11=Mariana Mambo [ Mariana Mambo ] Cayanne
TTITLE12=Musik ' da Pop [ Pop Muzak ] Mouse T. feat.Roachford
TTITLE13=Goin' One, Goin' Twice [ Sold ] John Michael Montgomery
TTITLE14=Femme Like U [ Femme Like U ] K . Maro
TTITLE15=Dancing Feet [ I'm Outta Love ] Anastacia
TTITLE16=Heat On The Street [ The Heat Is On ] Glenn  Frey
TTITLE17=That Feeling [ I've Got A Feelin' For You ] Joni Harms
EXTD=
EXTT0=
EXTT1=
EXTT2=
EXTT3=
EXTT4=
EXTT5=
EXTT6=
EXTT7=
EXTT8=
EXTT9=
EXTT10=
EXTT11=
EXTT12=
EXTT13=
EXTT14=
EXTT15=
EXTT16=
EXTT17=
PLAYORDER=
